# xmcd CD database file generated by Grip 3.0.1
# 
# Track frame offsets:
#       150
#       22647
#       46972
#       70462
#       92890
#       114530
#       150857
#       157312
#       183022
#       209455
#       223582
# 
# Disc length: 3236 seconds
# 
# Revision: 2
# Processed by: cddbd v1.4PL0 Copyright (c) Steve Scherf et al.
# Submitted via: Grip 3.0.1
# 
DISCID=8e0ca20b
DTITLE=Craig Erickson - Two Sides Of The Blues
DYEAR=1995
DGENRE=Blues
TTITLE0=East Texas Blues
TTITLE1=You Bring Me Up
TTITLE2=You Just Don't Know
TTITLE3=Little Cafe
TTITLE4=Ego Tripper
TTITLE5=No Reply
TTITLE6=Buried Treasure
TTITLE7=Wealthy Man
TTITLE8=Out Of Town
TTITLE9=Natural Disaster
TTITLE10=Beggar Or A King
EXTD=
EXTT0=
EXTT1=
EXTT2=
EXTT3=
EXTT4=
EXTT5=
EXTT6=
EXTT7=
EXTT8=
EXTT9=
EXTT10=
PLAYORDER=
